# xmcd
#
# Track frame offsets:
#	150
#	17992
#	47764
#	66364
#	82834
#	99602
#	140874
#	168083
#	181816
#
# Disc length: 2777 seconds
# Revision: 0
# Processed by: cddbd v1.5.2PL0 Copyright (c) Steve Scherf et al.
# Submitted via: dBpowerAMP V12.0
#
DISCID=740ad709
DTITLE=Calexico - Hot Rail
DYEAR=2013
DGENRE=Alt Country
TTITLE0=Crystal Frontier (Widescreen)
TTITLE1=CF (Buscemi Remix)
TTITLE2=Untitled III (Virus Style Mix)
TTITLE3=Crooked Road ...
TTITLE4=Banderilla
TTITLE5=Dia De Los Muertos
TTITLE6=Chatch (Tasha Bundy RMX)
TTITLE7=Still Missing
TTITLE8=Triple Truckstop
EXTD=
EXTT0=
EXTT1=
EXTT2=
EXTT3=
EXTT4=
EXTT5=
EXTT6=
EXTT7=
EXTT8=
PLAYORDER=
